<?xml version="1.0" encoding="utf-8"?>
<!-- Generator: Adobe Illustrator 22.1.0, SVG Export Plug-In . SVG Version: 6.00 Build 0)  -->
<svg version="1.1" id="Layer_1" xmlns="http://www.w3.org/2000/svg" xmlns:xlink="http://www.w3.org/1999/xlink" x="0px" y="0px"
	 viewBox="0 0 100 100" style="enable-background:new 0 0 100 100;" xml:space="preserve">
<style type="text/css">
	.st0{fill:#5D97D1;}
</style>
<path class="st0" d="M64,64.9v-4.4c2.4-1.4,4-4,4-6.9c0-4.4-3.6-8-8-8c-1.6,0-3.1,0.5-4.3,1.3c-1.2-5.3-6-9.3-11.7-9.3
	c-6.6,0-12,5.4-12,12c0,3.5,1.5,6.7,4,8.9v4.9c-4.8-2.8-8-7.9-8-13.8c0-8.8,7.2-16,16-16c6,0,11.2,3.3,14,8.2c0.7-0.1,1.3-0.2,2-0.2
	c6.6,0,12,5.4,12,12C72,58.9,68.7,63.3,64,64.9z M42,65.6c-1.1,0-1-0.9-1-2v-8c0-1.1-0.1-2,1-2s1,0.9,1,2v8
	C43,64.7,43.1,65.6,42,65.6z M42,69.6c1.1,0,2,0.9,2,2c0,1.1-0.9,2-2,2s-2-0.9-2-2C40,70.5,40.9,69.6,42,69.6z M50,69.6
	c-1.1,0-1-0.9-1-2v-8c0-1.1-0.1-2,1-2s1,0.9,1,2v8C51,68.7,51.1,69.6,50,69.6z M50,73.6c1.1,0,2,0.9,2,2c0,1.1-0.9,2-2,2s-2-0.9-2-2
	C48,74.5,48.9,73.6,50,73.6z M58,65.6c-1.1,0-1-0.9-1-2v-8c0-1.1-0.1-2,1-2s1,0.9,1,2v8C59,64.7,59.1,65.6,58,65.6z M58,69.6
	c1.1,0,2,0.9,2,2c0,1.1-0.9,2-2,2s-2-0.9-2-2C56,70.5,56.9,69.6,58,69.6z"/>
</svg>
