<?xml version="1.0" encoding="utf-8"?>
<!-- Generator: Adobe Illustrator 22.1.0, SVG Export Plug-In . SVG Version: 6.00 Build 0)  -->
<svg version="1.1" id="Layer_1" xmlns="http://www.w3.org/2000/svg" xmlns:xlink="http://www.w3.org/1999/xlink" x="0px" y="0px"
	 viewBox="0 0 100 100" style="enable-background:new 0 0 100 100;" xml:space="preserve">
<style type="text/css">
	.st0{fill:#5D97D1;}
</style>
<path class="st0" d="M59.8,54l-5.2,3.1c0.1,0.4,0.2,0.8,0.2,1.3c0,0.4-0.1,0.9-0.2,1.3l5.2,2.9c0.6,0.3,0.8,1.1,0.4,1.6
	c-0.3,0.6-1.1,0.8-1.6,0.4l-5.2-2.9c-0.6,0.6-1.4,1.1-2.2,1.3v5.4c0,0.7-0.5,1.2-1.2,1.2s-1.2-0.5-1.2-1.2v-5.4
	c-0.9-0.2-1.6-0.7-2.2-1.3l-5.2,2.9c-0.6,0.3-1.3,0.1-1.6-0.4c-0.3-0.6-0.1-1.3,0.4-1.6l5.2-2.9c-0.1-0.4-0.2-0.8-0.2-1.3
	c0-0.4,0.1-0.9,0.2-1.3l-5.2-3.1c-0.6-0.3-0.8-1.1-0.4-1.6c0.3-0.6,1.1-0.8,1.6-0.4l5.2,3.1c0.6-0.6,1.4-1.1,2.2-1.3v-5.4
	c0-0.7,0.5-1.2,1.2-1.2s1.2,0.5,1.2,1.2v5.4c0.9,0.2,1.6,0.7,2.2,1.3l5.2-3.1c0.6-0.3,1.3-0.1,1.6,0.4C60.6,52.9,60.4,53.7,59.8,54z
	"/>
<path class="st0" d="M63.2,57.8L63.2,57.8C63,58,62.7,58.1,62.4,58L44.2,47.5C44,47.3,43.9,47,44,46.7l0,0c0.2-0.3,0.5-0.4,0.8-0.2
	L63,57C63.3,57.2,63.4,57.5,63.2,57.8z"/>
<path class="st0" d="M57.1,69.5L57.1,69.5c-0.3,0-0.6-0.3-0.6-0.6v-21c0-0.3,0.3-0.6,0.6-0.6h0c0.3,0,0.6,0.3,0.6,0.6v21
	C57.7,69.2,57.4,69.5,57.1,69.5z"/>
<path class="st0" d="M42.9,69.5L42.9,69.5c-0.3,0-0.6-0.3-0.6-0.6v-21c0-0.3,0.3-0.6,0.6-0.6l0,0c0.3,0,0.6,0.3,0.6,0.6v21
	C43.4,69.2,43.2,69.5,42.9,69.5z"/>
<path class="st0" d="M56,70.2L56,70.2c-0.2,0.3-0.5,0.4-0.8,0.2L37.1,59.9c-0.3-0.2-0.4-0.5-0.2-0.8l0,0c0.2-0.3,0.5-0.4,0.8-0.2
	l18.2,10.5C56.1,69.6,56.2,69.9,56,70.2z"/>
<path class="st0" d="M36.9,57.8L36.9,57.8c-0.2-0.3-0.1-0.6,0.2-0.8l18.2-10.5c0.3-0.2,0.6-0.1,0.8,0.2l0,0c0.2,0.3,0.1,0.6-0.2,0.8
	L37.6,58C37.4,58.1,37,58,36.9,57.8z"/>
<path class="st0" d="M44,70.2L44,70.2c-0.2-0.3-0.1-0.6,0.2-0.8l18.2-10.5c0.3-0.2,0.6-0.1,0.8,0.2l0,0c0.2,0.3,0.1,0.6-0.2,0.8
	L44.8,70.4C44.5,70.6,44.2,70.5,44,70.2z"/>
<path class="st0" d="M42,34.8l-5.2,3.1c0.1,0.4,0.2,0.8,0.2,1.3c0,0.4-0.1,0.9-0.2,1.3l5.2,2.9c0.6,0.3,0.8,1.1,0.4,1.6
	c-0.3,0.6-1.1,0.8-1.6,0.4l-5.2-2.9c-0.6,0.6-1.4,1.1-2.2,1.3v5.4c0,0.7-0.5,1.2-1.2,1.2c-0.7,0-1.2-0.5-1.2-1.2v-5.4
	c-0.9-0.2-1.6-0.7-2.2-1.3l-5.2,2.9c-0.6,0.3-1.3,0.1-1.6-0.4c-0.3-0.6-0.1-1.3,0.4-1.6l5.2-2.9c-0.1-0.4-0.2-0.8-0.2-1.3
	c0-0.4,0.1-0.9,0.2-1.3l-5.2-3.1c-0.6-0.3-0.8-1.1-0.4-1.6c0.3-0.6,1.1-0.8,1.6-0.4l5.2,3.1c0.6-0.6,1.4-1.1,2.2-1.3v-5.4
	c0-0.7,0.5-1.2,1.2-1.2c0.7,0,1.2,0.5,1.2,1.2v5.4c0.9,0.2,1.6,0.7,2.2,1.3l5.2-3.1c0.6-0.3,1.3-0.1,1.6,0.4
	C42.8,33.7,42.6,34.4,42,34.8z"/>
<path class="st0" d="M45.4,38.5L45.4,38.5c-0.2,0.3-0.5,0.4-0.8,0.2L26.4,28.2c-0.3-0.2-0.4-0.5-0.2-0.8v0c0.2-0.3,0.5-0.4,0.8-0.2
	l18.2,10.5C45.5,37.9,45.6,38.3,45.4,38.5z"/>
<path class="st0" d="M39.3,50.3L39.3,50.3c-0.3,0-0.6-0.3-0.6-0.6v-21c0-0.3,0.3-0.6,0.6-0.6l0,0c0.3,0,0.6,0.3,0.6,0.6v21
	C39.8,50,39.6,50.3,39.3,50.3z"/>
<path class="st0" d="M25.1,50.3L25.1,50.3c-0.3,0-0.6-0.3-0.6-0.6v-21c0-0.3,0.3-0.6,0.6-0.6l0,0c0.3,0,0.6,0.3,0.6,0.6v21
	C25.6,50,25.4,50.3,25.1,50.3z"/>
<path class="st0" d="M38.2,50.9L38.2,50.9c-0.2,0.3-0.5,0.4-0.8,0.2L19.3,40.7c-0.3-0.2-0.4-0.5-0.2-0.8v0c0.2-0.3,0.5-0.4,0.8-0.2
	L38,50.2C38.3,50.3,38.4,50.7,38.2,50.9z"/>
<path class="st0" d="M19,38.5L19,38.5c-0.2-0.3-0.1-0.6,0.2-0.8l18.2-10.5c0.3-0.2,0.6-0.1,0.8,0.2v0c0.2,0.3,0.1,0.6-0.2,0.8
	L19.8,38.7C19.6,38.9,19.2,38.8,19,38.5z"/>
<path class="st0" d="M26.2,50.9L26.2,50.9c-0.2-0.3-0.1-0.6,0.2-0.8l18.2-10.5c0.3-0.2,0.6-0.1,0.8,0.2v0c0.2,0.3,0.1,0.6-0.2,0.8
	L27,51.2C26.7,51.3,26.4,51.2,26.2,50.9z"/>
<path class="st0" d="M77.6,34.7l-5.2,3.1c0.1,0.4,0.2,0.8,0.2,1.3c0,0.4-0.1,0.9-0.2,1.3l5.2,2.9c0.6,0.3,0.8,1.1,0.4,1.6
	c-0.3,0.6-1.1,0.8-1.6,0.4l-5.2-2.9c-0.6,0.6-1.4,1.1-2.2,1.3v5.4c0,0.7-0.5,1.2-1.2,1.2s-1.2-0.5-1.2-1.2v-5.4
	c-0.9-0.2-1.6-0.7-2.2-1.3L59,45.4c-0.6,0.3-1.3,0.1-1.6-0.4c-0.3-0.6-0.1-1.3,0.4-1.6l5.2-2.9c-0.1-0.4-0.2-0.8-0.2-1.3
	c0-0.4,0.1-0.9,0.2-1.3l-5.2-3.1c-0.6-0.3-0.8-1.1-0.4-1.6c0.3-0.6,1.1-0.8,1.6-0.4l5.2,3.1c0.6-0.6,1.4-1.1,2.2-1.3v-5.4
	c0-0.7,0.5-1.2,1.2-1.2s1.2,0.5,1.2,1.2v5.4c0.9,0.2,1.6,0.7,2.2,1.3l5.2-3.1c0.6-0.3,1.3-0.1,1.6,0.4
	C78.4,33.7,78.2,34.4,77.6,34.7z"/>
<path class="st0" d="M81,38.5L81,38.5c-0.2,0.3-0.5,0.4-0.8,0.2L62,28.2c-0.3-0.2-0.4-0.5-0.2-0.8l0,0c0.2-0.3,0.5-0.4,0.8-0.2
	l18.2,10.5C81,37.9,81.1,38.2,81,38.5z"/>
<path class="st0" d="M74.8,50.2L74.8,50.2c-0.3,0-0.6-0.3-0.6-0.6v-21c0-0.3,0.3-0.6,0.6-0.6l0,0c0.3,0,0.6,0.3,0.6,0.6v21
	C75.4,50,75.2,50.2,74.8,50.2z"/>
<path class="st0" d="M60.6,50.2L60.6,50.2c-0.3,0-0.6-0.3-0.6-0.6v-21c0-0.3,0.3-0.6,0.6-0.6l0,0c0.3,0,0.6,0.3,0.6,0.6v21
	C61.2,50,60.9,50.2,60.6,50.2z"/>
<path class="st0" d="M73.8,50.9L73.8,50.9c-0.2,0.3-0.5,0.4-0.8,0.2L54.8,40.6c-0.3-0.2-0.4-0.5-0.2-0.8l0,0
	c0.2-0.3,0.5-0.4,0.8-0.2l18.2,10.5C73.8,50.3,73.9,50.7,73.8,50.9z"/>
<path class="st0" d="M54.6,38.5L54.6,38.5c-0.2-0.3-0.1-0.6,0.2-0.8L73,27.2c0.3-0.2,0.6-0.1,0.8,0.2l0,0c0.2,0.3,0.1,0.6-0.2,0.8
	L55.4,38.7C55.1,38.9,54.8,38.8,54.6,38.5z"/>
<path class="st0" d="M61.8,50.9L61.8,50.9c-0.2-0.3-0.1-0.6,0.2-0.8l18.2-10.5c0.3-0.2,0.6-0.1,0.8,0.2l0,0c0.2,0.3,0.1,0.6-0.2,0.8
	L62.6,51.1C62.3,51.3,61.9,51.2,61.8,50.9z"/>
</svg>
