<?xml version="1.0" encoding="utf-8"?>
<!-- Generator: Adobe Illustrator 22.1.0, SVG Export Plug-In . SVG Version: 6.00 Build 0)  -->
<svg version="1.1" id="Layer_1" xmlns="http://www.w3.org/2000/svg" xmlns:xlink="http://www.w3.org/1999/xlink" x="0px" y="0px"
	 viewBox="0 0 216 216" style="enable-background:new 0 0 216 216;" xml:space="preserve">
<style type="text/css">
	.st0{fill:#DBD5D6;}
	.st1{fill:#091836;}
	.st2{fill:none;stroke:#091836;stroke-width:6;stroke-miterlimit:10;}
	.st3{fill:none;stroke:#091836;stroke-width:5;stroke-miterlimit:10;}
</style>
<path class="st0" d="M208.4,110.3v0.3h-188l-6.8,2.9l-5.9,4.5l1.3-7.4l0,0l0,0l1.5-5.2c1.4-5,4.2-9.5,7.9-13.1
	c1.3-1.2,2.7-2.4,4.2-3.4c1.5-1.1,3-2,4.6-2.9l2.1-1.1V78c0-4.6,0.9-9.1,2.5-13.3c1.6-4.2,4-8.1,7.1-11.5c1.7-1.8,3.5-3.5,5.5-5
	c2-1.5,4.1-2.8,6.3-3.9c2-1,4.1-1.8,6.3-2.3c2.2-0.5,4.4-0.8,6.7-0.8h3.4c5.7,0,11.5,0.9,16.9,2.6c1.7,0.5,3.3,1.2,4.9,2
	c1.6,0.8,3.1,1.7,4.5,2.7c1.3,1,2.6,2,3.7,3.2c1.1,1.2,2.2,2.4,3.1,3.7l2.7,3.8h3.4c1.1,0,2.2,0,3.3,0.1l6.2,0.4l3.5,0.4
	c3.2,0.4,6.2,1.4,9,3c0.9,0.5,1.7,1.2,2.4,1.9c0.7,0.7,1.3,1.6,1.9,2.5l3,5.5l7.7,0.3c2.2,0.1,4.4,0.4,6.6,1l0.4,0.1
	c3.6,1,6.9,2.9,9.5,5.6l2.4,2.5c0.6,0.6,1.2,1.3,1.8,2l2.3,2.7c0.9,1.1,2.3,1.8,3.7,2c0.3,0,0.5,0,0.8,0c1.2,0,2.5-0.3,3.6-0.9
	l2.2-1.1c2-1,4.2-1.7,6.5-1.9l0.7-0.1c3.3-0.3,6.7,0.3,9.6,1.9l2.3,1.2c1.3,0.7,2.5,1.5,3.6,2.5l1.6,1.5c0.9,0.8,1.7,1.7,2.4,2.7
	c1.6,2.2,2.8,4.7,3.7,7.2C208,104.9,208.4,107.6,208.4,110.3z"/>
<polygon class="st0" points="9.2,110.6 9.2,110.7 9.2,110.6 "/>
<polygon class="st0" points="9.2,110.7 9.2,110.7 9.1,110.7 "/>
<g>
	<path class="st1" d="M6.7,145.5h9.4l2.7,18.3l2.8-13.4h9.7l2.8,13.4l2.7-18.3h9.4l-6.5,28.7H30l-3.5-15.4L23,174.2h-9.7L6.7,145.5z
		"/>
	<path class="st1" d="M49.9,145.5H70v6.3H60v5.2h9.1v5.3H60v5.6h10v6.3H49.9V145.5z"/>
	<path class="st1" d="M80.1,145.5h12.7l8.3,28.7h-9.8l-1.1-5.5h-7.4l-1.2,5.5h-9.4L80.1,145.5z M89.2,163.6L86.5,151l-2.8,12.6H89.2
		z"/>
	<path class="st1" d="M106.3,151.9h-6v-6.3H122v6.3h-6v22.4h-9.7V151.9z"/>
	<path class="st1" d="M125.9,145.5h9.4V157h8.9v-11.4h9.4v28.7h-9.4V163h-8.9v11.3h-9.4V145.5z"/>
	<path class="st1" d="M159,145.5h20.2v6.3h-10v5.2h9.1v5.3h-9.1v5.6h10v6.3H159V145.5z"/>
	<path class="st1" d="M196,167.6l-1-4.3h-2v10.9h-9.1v-28.7h12.6c2.4,0,4.5,0.4,6.3,1.1c1.8,0.7,3.2,1.7,4.2,3
		c1,1.3,1.5,2.8,1.5,4.4c0,1.9-0.5,3.4-1.4,4.7c-0.9,1.3-2.3,2.3-4.2,3.1c0.2,1.1,0.4,2,0.7,2.9c0.3,1.1,0.8,1.8,1.4,2.2
		c0.6,0.4,1.4,0.6,2.5,0.6c0.4,0,1-0.1,1.8-0.2v6.8c-1.3,0.5-2.6,0.8-3.8,0.8C200.4,174.9,197.2,172.5,196,167.6z M194.6,157.5
		c2.1,0,3.5-0.2,4.4-0.7c0.8-0.5,1.3-1.2,1.3-2.4c0-0.9-0.3-1.6-1-2.1c-0.7-0.4-1.8-0.6-3.3-0.6H193v5.8H194.6z"/>
</g>
<path class="st0" d="M9.1,110.7"/>
<path class="st2" d="M23.8,104.1c1.2-4.1,3.4-7.8,6.5-10.7c1.1-1,2.2-2,3.4-2.8c1.2-0.9,2.4-1.6,3.7-2.3l1.7-0.9v-5.6
	c0-3.7,0.7-7.4,2-10.9c1.3-3.4,3.3-6.6,5.8-9.4c1.4-1.5,2.9-2.9,4.5-4.1c1.6-1.2,3.4-2.3,5.2-3.2c1.6-0.8,3.4-1.4,5.2-1.9
	c1.8-0.4,3.6-0.6,5.4-0.6h2.7c4.7,0,9.4,0.7,13.8,2.1c1.4,0.4,2.7,1,4,1.6c1.3,0.6,2.5,1.4,3.7,2.2c1.1,0.8,2.1,1.6,3,2.6
	c0.9,0.9,1.8,2,2.5,3l2.2,3.1h2.8c0.9,0,1.8,0,2.7,0.1l5,0.3l2.8,0.3c2.6,0.3,5.1,1.1,7.3,2.5c0.7,0.4,1.4,1,2,1.6
	c0.6,0.6,1.1,1.3,1.5,2l2.5,4.5"/>
<path class="st2" d="M159.8,90l1.9,2c0.5,0.5,1,1,1.4,1.6l1.8,2.1c0.7,0.9,1.8,1.4,2.9,1.6c0.2,0,0.4,0,0.6,0c1,0,1.9-0.2,2.8-0.7
	l1.7-0.9c1.6-0.8,3.3-1.3,5.1-1.5l0.5-0.1c2.6-0.3,5.2,0.3,7.5,1.5l1.8,0.9c1,0.5,2,1.2,2.8,2l1.3,1.1c0.7,0.6,1.3,1.3,1.9,2.1
	c1.3,1.7,2.2,3.6,2.9,5.6"/>
<g>
	<path class="st1" d="M8.3,140l1.4-7.4c3,1.1,5.9,1.6,8.7,1.6c2.1,0,3.1-0.6,3.1-1.7c0-0.6-0.3-1.1-0.9-1.4c-0.6-0.4-1.7-0.7-3.4-1
		c-3.4-0.7-5.9-1.8-7.4-3.3c-1.5-1.6-2.3-3.8-2.3-6.7c0.2-3.3,1.5-5.8,3.9-7.5c2.4-1.7,5.8-2.6,10-2.6c2.1,0,4,0.1,5.5,0.4
		c1.5,0.3,3,0.7,4.2,1.3l-1.3,7.4c-1.2-0.5-2.5-0.8-3.9-1.1c-1.4-0.2-2.6-0.4-3.6-0.4c-1.4,0-2.4,0.1-2.9,0.4
		c-0.5,0.3-0.8,0.7-0.8,1.2c0,0.9,1,1.5,3.1,1.9c3.8,0.7,6.6,1.8,8.4,3.5c1.9,1.7,2.8,3.9,2.8,6.8c0,3.3-1.1,5.8-3.4,7.7
		c-2.3,1.9-5.6,2.8-9.9,2.8C15.3,141.9,11.5,141.3,8.3,140z"/>
	<path class="st1" d="M37.6,110.8H50v6.3c1.4-2.4,3-4.2,4.8-5.4c1.8-1.2,3.9-1.8,6.4-1.8c2.4,0,4.6,0.6,6.4,1.8
		c1.8,1.2,3.1,2.9,4.1,4.9c2.6-4.5,6.5-6.8,11.5-6.8c2.4,0,4.5,0.6,6.3,1.9c1.8,1.3,3.2,3.1,4.2,5.5c1,2.4,1.5,5.3,1.5,8.5v15.5H82
		v-15.5c0-2.1-0.4-3.7-1.1-4.8c-0.7-1.1-1.7-1.6-3-1.6c-1.4,0-2.6,0.6-3.6,1.8c-1,1.2-1.5,2.6-1.5,4.3v15.7H59.9v-15.5
		c0-2.1-0.4-3.7-1.1-4.8c-0.7-1.1-1.7-1.6-3.1-1.6c-1.4,0-2.6,0.6-3.6,1.8c-1,1.2-1.5,2.6-1.5,4.3v15.7H37.6V110.8z"/>
	<path class="st1" d="M107.3,139.8c-2.3-1.4-4.2-3.4-5.6-5.8c-1.4-2.5-2.1-5.2-2.1-8.2c0-3,0.7-5.7,2.1-8.1c1.4-2.4,3.3-4.3,5.6-5.7
		c2.4-1.4,4.9-2,7.5-2c2.1,0,4.1,0.6,6,1.8c1.8,1.2,3.2,3,4.2,5.4v-6.5h13v30.8h-13v-5.8c-2.1,4.2-5.5,6.3-10.2,6.3
		C112.1,141.9,109.6,141.2,107.3,139.8z M123.1,130.4c1.2-1.2,1.8-2.6,1.9-4.2v-0.5c-0.1-1.7-0.7-3.1-2-4.2
		c-1.2-1.2-2.6-1.7-4.2-1.7c-1.7,0-3.2,0.6-4.4,1.8c-1.2,1.2-1.8,2.7-1.8,4.4c0,1.7,0.6,3.2,1.9,4.4c1.2,1.2,2.7,1.8,4.4,1.8
		C120.5,132.1,121.9,131.5,123.1,130.4z"/>
	<path class="st1" d="M144.2,100.6l13.1-1.9v18.1c0.9-2.2,2.3-3.9,4.1-5c1.8-1.2,4.1-1.8,6.7-1.8c4,0,7.1,1.4,9.3,4.2
		c2.3,2.8,3.4,6.7,3.4,11.7v15.5h-13v-16.8c0-1.8-0.4-3.1-1.1-4.1c-0.8-0.9-1.8-1.4-3.2-1.4c-1,0-2,0.3-2.9,1
		c-1,0.6-1.7,1.6-2.3,2.8c-0.6,1.2-0.9,2.6-0.9,4.1v14.5h-13.1V100.6z"/>
	<path class="st1" d="M191.3,138.8c-2-2.1-3-5-3-8.6v-12.1h-4v-7.3h4.9l5.8-12h6.3l0,12h7.2l0,7.4h-7.2v10.5c0,1,0.3,1.8,1,2.4
		c0.7,0.6,1.6,0.9,2.8,0.9c1.1,0,2.1-0.2,3-0.7l0.5,8.7c-1,0.6-2.4,1.1-4,1.5c-1.6,0.4-3.2,0.6-4.7,0.6
		C196.2,141.9,193.3,140.9,191.3,138.8z"/>
</g>
<path class="st3" d="M49.6,85.5v-3.5c0-2.4,0.4-4.7,1.3-6.8c0.8-2.2,2.1-4.2,3.7-5.9c0.9-0.9,1.8-1.8,2.8-2.6c1-0.8,2.1-1.4,3.3-2
	c1-0.5,2.1-0.9,3.2-1.2c1.1-0.3,2.3-0.4,3.4-0.4H69c3,0,5.9,0.4,8.7,1.3c0.9,0.3,1.7,0.6,2.5,1c0.8,0.4,1.6,0.9,2.3,1.4
	c0.7,0.5,1.3,1,1.9,1.6c0.6,0.6,1.1,1.2,1.6,1.9l1.4,2"/>
</svg>
