<svg id="Layer_1" data-name="Layer 1" xmlns="http://www.w3.org/2000/svg" viewBox="0 0 144 144"><defs><style>.cls-1{fill:#dbd5d6;}.cls-2{fill:#091836;}</style></defs><title>logo3</title><path class="cls-1" d="M3.22,74.15l1-3.59a19.73,19.73,0,0,1,4.91-8.48,27.47,27.47,0,0,1,3.39-2.9,28.5,28.5,0,0,1,3.15-2l1.46-.78V51.69a25.25,25.25,0,0,1,6.63-17.08A28.19,28.19,0,0,1,32,28.44a20.21,20.21,0,0,1,8.94-2.11H43.2A39.5,39.5,0,0,1,54.87,28.1a22.55,22.55,0,0,1,3.35,1.35,22.25,22.25,0,0,1,3.1,1.88A20,20,0,0,1,66,36.07l1.85,2.62H70.2c.77,0,1.53,0,2.29.07l4.25.25,2.39.27a15.22,15.22,0,0,1,6.17,2.08,8.2,8.2,0,0,1,3,3.07l2.09,3.77,5.31.22a20.46,20.46,0,0,1,4.53.71l.3.08a14.53,14.53,0,0,1,6.56,3.89l1.67,1.72c.43.45.84.9,1.24,1.38l1.57,1.88a3.84,3.84,0,0,0,2.58,1.37,5.07,5.07,0,0,0,.55,0,5.56,5.56,0,0,0,2.49-.59l1.51-.76a12.7,12.7,0,0,1,4.47-1.29l.47-.05a11.71,11.71,0,0,1,6.65,1.3l1.55.81a12.07,12.07,0,0,1,2.46,1.72l1,.94a12.38,12.38,0,0,1,1.75,1.94A18,18,0,0,1,140.44,74v5.68c0,10.23-8.25,15.72-18.48,15.72H25.62c-13,0-23.31-8.22-22.4-21.21h0"/><polygon class="cls-1" points="3.22 74.15 3.22 74.17 3.22 74.15 3.22 74.15"/><polygon class="cls-1" points="3.22 74.17 3.22 74.19 3.21 74.19 3.22 74.17"/><path class="cls-2" d="M1.54,98.17H8l1.87,12.62,1.93-9.25h6.7l1.95,9.25,1.87-12.62h6.46L24.3,118H17.6l-2.44-10.64L12.72,118H6Z"/><path class="cls-2" d="M31.26,98.17H45.14v4.37h-6.9v3.6h6.29v3.62H38.24v3.82h6.9V118H31.26Z"/><path class="cls-2" d="M52.09,98.17h8.74L66.55,118H59.8l-.75-3.8H53.93L53.1,118H46.63Zm6.27,12.45L56.49,102l-2,8.65Z"/><path class="cls-2" d="M70.09,102.54H66V98.17H80.89v4.37H76.78V118H70.09Z"/><path class="cls-2" d="M83.59,98.17h6.47v7.88h6.12V98.17h6.5V118h-6.5v-7.76H90.06V118H83.59Z"/><path class="cls-2" d="M106.41,98.17H120.3v4.37h-6.9v3.6h6.29v3.62H113.4v3.82h6.9V118H106.41Z"/><path class="cls-2" d="M131.88,113.41l-.72-3h-1.35V118h-6.3V98.17h8.71a12,12,0,0,1,4.36.74,6.72,6.72,0,0,1,2.92,2,4.86,4.86,0,0,1,1,3.05,5.43,5.43,0,0,1-.93,3.23,6.66,6.66,0,0,1-2.89,2.14,17.81,17.81,0,0,0,.46,2,2.81,2.81,0,0,0,1,1.52,3,3,0,0,0,1.75.43,11.83,11.83,0,0,0,1.26-.11v4.68a7.25,7.25,0,0,1-2.64.52C134.89,118.41,132.68,116.74,131.88,113.41Zm-1-7a6.72,6.72,0,0,0,3-.47,1.69,1.69,0,0,0,.88-1.62,1.55,1.55,0,0,0-.72-1.43,4.51,4.51,0,0,0-2.27-.44h-2v4Z"/><path class="cls-2" d="M2.6,94.38l1-5.08a17.53,17.53,0,0,0,6,1.11q2.13,0,2.13-1.2a1.14,1.14,0,0,0-.61-1,7.57,7.57,0,0,0-2.33-.68,9.41,9.41,0,0,1-5.1-2.3,6.83,6.83,0,0,1,1.13-9.77,11.62,11.62,0,0,1,6.87-1.79,23.35,23.35,0,0,1,3.82.27,11,11,0,0,1,2.92.92L17.49,80a14.3,14.3,0,0,0-2.71-.73A14.77,14.77,0,0,0,12.32,79a4.83,4.83,0,0,0-2,.29.91.91,0,0,0-.56.82c0,.62.72,1.06,2.14,1.32a11.65,11.65,0,0,1,5.8,2.39,5.88,5.88,0,0,1,1.92,4.65,6.51,6.51,0,0,1-2.37,5.31q-2.37,1.93-6.8,1.94A21.41,21.41,0,0,1,2.6,94.38Z"/><path class="cls-2" d="M22.77,74.28h8.58v4.35a10.9,10.9,0,0,1,3.3-3.73,7.89,7.89,0,0,1,4.42-1.21A7.57,7.57,0,0,1,43.44,75a7.72,7.72,0,0,1,2.8,3.39,8.69,8.69,0,0,1,7.93-4.65A7.28,7.28,0,0,1,58.5,75a8.42,8.42,0,0,1,2.88,3.82,15.42,15.42,0,0,1,1,5.86V95.36h-9V84.69a6,6,0,0,0-.74-3.28,2.37,2.37,0,0,0-2.07-1.11,3.16,3.16,0,0,0-2.5,1.24,4.44,4.44,0,0,0-1,3V95.36H38.13V84.69a5.87,5.87,0,0,0-.75-3.28,2.39,2.39,0,0,0-2.11-1.11,3.1,3.1,0,0,0-2.47,1.24,4.53,4.53,0,0,0-1,3V95.36h-9Z"/><path class="cls-2" d="M70.78,94.23a11.09,11.09,0,0,1-3.86-4,11.3,11.3,0,0,1-1.45-5.66A10.93,10.93,0,0,1,66.92,79a10.58,10.58,0,0,1,3.89-3.91A10.21,10.21,0,0,1,76,73.69a7.39,7.39,0,0,1,4.11,1.23A7.63,7.63,0,0,1,83,78.63V74.17h9V95.36H83v-4a7.25,7.25,0,0,1-7,4.31A9.81,9.81,0,0,1,70.78,94.23Zm10.88-6.49A4.23,4.23,0,0,0,83,84.86v-.34a4.33,4.33,0,0,0-4.22-4.09,4.19,4.19,0,0,0-3,1.25,4.12,4.12,0,0,0-1.26,3,4,4,0,0,0,1.28,3,4.18,4.18,0,0,0,3,1.24A4,4,0,0,0,81.66,87.74Z"/><path class="cls-2" d="M96.23,67.25l9-1.33V78.38a7.34,7.34,0,0,1,2.84-3.48,8.3,8.3,0,0,1,4.58-1.21,7.74,7.74,0,0,1,6.42,2.92q2.33,2.92,2.33,8.08V95.36h-9V83.8a4.39,4.39,0,0,0-.79-2.82,2.68,2.68,0,0,0-2.2-1,3.54,3.54,0,0,0-2,.66,4.72,4.72,0,0,0-1.6,1.9,6.21,6.21,0,0,0-.62,2.81v10h-9Z"/><path class="cls-2" d="M128.65,93.54a8.19,8.19,0,0,1-2.09-6V79.27h-2.73v-5h3.37l4-8.3h4.31v8.27h4.95l0,5.08h-4.94v7.26a2.07,2.07,0,0,0,.68,1.66,2.8,2.8,0,0,0,1.92.6,4.34,4.34,0,0,0,2.09-.51l.34,6a10.08,10.08,0,0,1-2.75,1,14,14,0,0,1-3.27.41A7.74,7.74,0,0,1,128.65,93.54Z"/></svg>