<?xml version="1.0" encoding="utf-8"?>
<!-- Generator: Adobe Illustrator 22.1.0, SVG Export Plug-In . SVG Version: 6.00 Build 0)  -->
<svg version="1.1" id="Layer_1" xmlns="http://www.w3.org/2000/svg" xmlns:xlink="http://www.w3.org/1999/xlink" x="0px" y="0px"
	 viewBox="0 0 216 216" style="enable-background:new 0 0 216 216;" xml:space="preserve">
<style type="text/css">
	.st0{fill:#DBD5D6;}
	.st1{fill:#091836;}
</style>
<path class="st0" d="M209.3,110.2v0.3H19.5l-6.8,3l-6,4.5l1.4-7.5l0,0l0,0l1.5-5.3c1.4-5,4.2-9.6,8-13.2c1.3-1.3,2.7-2.4,4.2-3.5
	c1.5-1.1,3-2,4.6-2.9l2.1-1.1v-7c0-4.6,0.9-9.2,2.5-13.4c1.6-4.2,4.1-8.2,7.2-11.6c1.7-1.9,3.6-3.6,5.6-5.1c2-1.5,4.1-2.8,6.4-4
	c2-1,4.2-1.8,6.4-2.3c2.2-0.5,4.5-0.8,6.7-0.8h3.4c5.8,0,11.6,0.9,17.1,2.6c1.7,0.5,3.3,1.2,4.9,2c1.6,0.8,3.1,1.7,4.5,2.7
	c1.3,1,2.6,2,3.7,3.2c1.2,1.2,2.2,2.4,3.2,3.8l2.7,3.8h3.4c1.1,0,2.2,0,3.3,0.1l6.2,0.4l3.5,0.4c3.2,0.4,6.3,1.4,9.1,3.1
	c0.9,0.5,1.7,1.2,2.5,2c0.7,0.8,1.4,1.6,1.9,2.5l3.1,5.5l7.8,0.3c2.2,0.1,4.5,0.4,6.6,1l0.5,0.1c3.7,1,7,3,9.6,5.7l2.5,2.5
	c0.6,0.7,1.2,1.3,1.8,2l2.3,2.8c0.9,1.1,2.3,1.9,3.8,2c0.3,0,0.5,0,0.8,0c1.3,0,2.5-0.3,3.7-0.9l2.2-1.1c2.1-1,4.3-1.7,6.6-1.9
	l0.7-0.1c3.4-0.3,6.8,0.3,9.7,1.9l2.3,1.2c1.3,0.7,2.5,1.5,3.6,2.5l1.6,1.5c0.9,0.8,1.7,1.7,2.4,2.7c1.6,2.2,2.9,4.7,3.7,7.3
	C208.9,104.7,209.3,107.4,209.3,110.2z"/>
<polygon class="st0" points="8,110.5 8,110.5 8,110.5 "/>
<polygon class="st0" points="8,110.5 8,110.5 8,110.5 "/>
<g>
	<path class="st1" d="M5.6,145.7H15l2.7,18.5l2.8-13.6h9.8l2.9,13.6l2.7-18.5h9.5l-6.6,29h-9.8l-3.6-15.6L22,174.7h-9.8L5.6,145.7z"
		/>
	<path class="st1" d="M49.1,145.7h20.4v6.4H59.4v5.3h9.2v5.3h-9.2v5.6h10.1v6.4H49.1V145.7z"/>
	<path class="st1" d="M79.7,145.7h12.8l8.4,29H91l-1.1-5.6h-7.5l-1.2,5.6h-9.5L79.7,145.7z M88.9,164l-2.7-12.7L83.3,164H88.9z"/>
	<path class="st1" d="M106.1,152.1h-6v-6.4H122v6.4h-6v22.6h-9.8V152.1z"/>
	<path class="st1" d="M125.9,145.7h9.5v11.6h9v-11.6h9.5v29h-9.5v-11.4h-9v11.4h-9.5V145.7z"/>
	<path class="st1" d="M159.4,145.7h20.4v6.4h-10.1v5.3h9.2v5.3h-9.2v5.6h10.1v6.4h-20.4V145.7z"/>
	<path class="st1" d="M196.8,168.1l-1.1-4.3h-2v11h-9.2v-29h12.8c2.4,0,4.5,0.4,6.4,1.1c1.8,0.7,3.3,1.7,4.3,3
		c1,1.3,1.5,2.8,1.5,4.5c0,1.9-0.5,3.5-1.4,4.7c-0.9,1.3-2.3,2.3-4.2,3.1c0.2,1.1,0.4,2,0.7,2.9c0.3,1.1,0.8,1.8,1.4,2.2
		c0.6,0.4,1.4,0.6,2.6,0.6c0.4,0,1-0.1,1.9-0.2v6.9c-1.3,0.5-2.6,0.8-3.9,0.8C201.2,175.4,197.9,173,196.8,168.1z M195.3,157.8
		c2.1,0,3.5-0.2,4.4-0.7c0.9-0.5,1.3-1.3,1.3-2.4c0-1-0.4-1.7-1.1-2.1c-0.7-0.4-1.8-0.7-3.3-0.7h-2.9v5.8H195.3z"/>
</g>
<path class="st0" d="M8,110.5"/>
<g>
	<path class="st1" d="M7.1,140.1l1.4-7.4c3,1.1,5.9,1.6,8.8,1.6c2.1,0,3.1-0.6,3.1-1.8c0-0.6-0.3-1.1-0.9-1.4
		c-0.6-0.4-1.7-0.7-3.4-1c-3.5-0.7-6-1.8-7.5-3.4c-1.5-1.6-2.3-3.8-2.3-6.8c0.2-3.3,1.5-5.8,3.9-7.6c2.5-1.8,5.8-2.6,10.1-2.6
		c2.2,0,4,0.1,5.6,0.4c1.6,0.3,3,0.7,4.3,1.3l-1.3,7.4c-1.2-0.5-2.5-0.8-4-1.1c-1.4-0.3-2.6-0.4-3.6-0.4c-1.4,0-2.4,0.1-2.9,0.4
		c-0.5,0.3-0.8,0.7-0.8,1.2c0,0.9,1,1.6,3.1,1.9c3.8,0.7,6.6,1.8,8.5,3.5c1.9,1.7,2.8,3.9,2.8,6.8c0,3.3-1.2,5.9-3.5,7.8
		c-2.3,1.9-5.6,2.8-10,2.8C14.2,142.1,10.4,141.4,7.1,140.1z"/>
	<path class="st1" d="M36.7,110.7h12.6v6.4c1.4-2.5,3-4.3,4.8-5.5c1.8-1.2,4-1.8,6.5-1.8c2.5,0,4.6,0.6,6.4,1.8
		c1.8,1.2,3.2,2.9,4.1,5c2.7-4.5,6.5-6.8,11.6-6.8c2.4,0,4.5,0.6,6.4,1.9c1.8,1.3,3.2,3.2,4.2,5.6c1,2.4,1.5,5.3,1.5,8.6v15.6H81.6
		v-15.6c0-2.1-0.4-3.7-1.1-4.8c-0.7-1.1-1.7-1.6-3-1.6c-1.4,0-2.6,0.6-3.7,1.8c-1,1.2-1.5,2.7-1.5,4.4v15.9H59.2v-15.6
		c0-2.1-0.4-3.7-1.1-4.8c-0.7-1.1-1.8-1.6-3.1-1.6c-1.4,0-2.6,0.6-3.6,1.8c-1,1.2-1.5,2.7-1.5,4.4v15.9H36.7V110.7z"/>
	<path class="st1" d="M107.1,139.9c-2.4-1.4-4.2-3.4-5.7-5.9c-1.4-2.5-2.1-5.2-2.1-8.3c0-3,0.7-5.7,2.1-8.2c1.4-2.4,3.3-4.3,5.7-5.7
		c2.4-1.4,4.9-2.1,7.6-2.1c2.2,0,4.2,0.6,6,1.8c1.9,1.2,3.3,3,4.2,5.4v-6.5h13.1v31.1H125v-5.8c-2.1,4.2-5.5,6.3-10.3,6.3
		C112,142.1,109.5,141.4,107.1,139.9z M123.1,130.4c1.2-1.2,1.8-2.6,1.9-4.2v-0.5c-0.1-1.7-0.7-3.1-2-4.3c-1.2-1.2-2.6-1.8-4.2-1.8
		c-1.8,0-3.2,0.6-4.5,1.8c-1.2,1.2-1.8,2.7-1.8,4.4c0,1.8,0.6,3.2,1.9,4.4c1.3,1.2,2.7,1.8,4.4,1.8
		C120.5,132.2,121.9,131.6,123.1,130.4z"/>
	<path class="st1" d="M144.5,100.4l13.2-1.9v18.3c0.9-2.2,2.3-3.9,4.2-5.1c1.9-1.2,4.1-1.8,6.7-1.8c4,0,7.1,1.4,9.4,4.3
		c2.3,2.9,3.4,6.8,3.4,11.9v15.6h-13.1v-17c0-1.8-0.4-3.2-1.2-4.1c-0.8-1-1.8-1.4-3.2-1.4c-1,0-2,0.3-2.9,1c-1,0.6-1.7,1.6-2.3,2.8
		c-0.6,1.2-0.9,2.6-0.9,4.1v14.6h-13.2V100.4z"/>
	<path class="st1" d="M192,138.9c-2-2.1-3.1-5-3.1-8.7V118h-4v-7.4h4.9l5.8-12.2h6.3l0,12.1h7.3l0,7.5H202v10.6c0,1,0.3,1.9,1,2.4
		c0.7,0.6,1.6,0.9,2.8,0.9c1.1,0,2.1-0.3,3.1-0.8l0.5,8.8c-1,0.6-2.4,1.1-4,1.5c-1.6,0.4-3.2,0.6-4.8,0.6
		C196.9,142.1,194.1,141,192,138.9z"/>
</g>
</svg>
